Patient4_TMGait_0pt6_01_right_41_EMG.mot
version=1
nRows=13
nColumns=33
inDegrees=no
endheader
time	1LAddLong	2LGlutMax	3LGlutMed	4LIliopsoas	5LSemiMemb	6LBicFemLong	7LRecFem	8LVastMed	9LVastLat	10LGasMed	11LTibAnt	12lTibPost	13LPeroneusLong	14LSol	15LExtDigLong	16LFlexDigLong	17RAddLong	18RGlutMax	19RGlutMed	20RIliopsoas	21RSemiMemb	22RBicFemLong	23RRecFem	24RVastMed	25RVastLat	26RGasMed	27RTibAnt	28RTibPost	29RPeroneusLong	30RSol	31RExtDigLong	32RFlexDigLong
50.145	0.016022	0.18158	-0.081329	0.018311	0.098114	-0.075226	0.13687	0.001984	0.088196	0.046692	0.22003	0.011292	-0.00351	0.043488	0.03952	0.001526	-0.016174	-0.087128	-0.19119	0.080109	-0.030518	-0.079651	-0.27161	-0.037079	-0.032654	-0.004272	0.21484	-0.007172	-0.013733	-0.38727	-0.003662	-0.001373
50.146	0.013733	0.13138	-0.15533	-0.005188	-0.007629	0.055084	0.12085	0.007935	0.052643	0.032349	0.13992	0.007324	0.080719	0.093994	0.23804	-0.002747	-0.055084	-0.036316	-0.11368	0.014191	0.31128	0.1561	-0.22751	-0.031128	-0.045166	-0.03418	-0.032196	-0.002594	-0.1326	-0.43884	-0.00412	0.000763
50.147	0.00061	0.14099	-0.13672	0.002441	0.046844	0.059357	0.054016	0.005035	-0.032501	0.00473	-0.14008	0.005951	0.1088	0.11459	0.20096	-0.002747	-0.036774	-0.058441	-0.032501	0.009766	0.29022	0.15091	-0.2182	0.045319	-0.035858	-0.03479	0.048218	-0.006256	-0.28809	-0.47852	-0.000916	-0.004272
50.148	0.007477	0.21011	-0.15671	0.002441	0.092926	-0.070953	-0.003967	0.006561	-0.066528	0.024719	-0.11566	0.011597	0.026398	0.10117	-0.030212	-0.001068	0.001526	-0.094452	-0.048828	0.078125	0.029297	-0.076294	-0.22079	0.033417	-0.019531	-0.020599	0.12817	-0.000916	-0.25818	-0.2446	-0.006714	-0.004883
50.149	0.002289	0.26443	-0.15335	-0.001831	0.049438	-0.066681	-0.01297	-0.000763	-0.082092	0.030365	0.001526	0.006104	-0.001526	0.10422	-0.14511	-0.002899	-0.024414	-0.060577	-0.17639	0.1059	-0.12558	-0.072327	-0.21454	0.094452	0.048523	0.002441	0.070496	-0.010681	-0.018463	-0.28259	-0.000763	-0.00473
50.15	-0.005341	0.32379	-0.12039	0.004425	0.00946	-0.071411	-0.027313	0.003357	-0.053101	0.032806	-0.013123	0.005035	0.31754	0.044861	-0.15869	-0.016327	-0.006561	-0.075531	-0.19318	0.011292	0.22461	-0.21515	-0.15488	0.14725	-0.009308	0.004883	-0.080261	-0.002747	0.38238	-0.33279	-0.004272	-0.001831
50.151	-0.016632	0.30411	-0.065765	0.010071	0.063629	-0.19531	0.014801	0.004272	0.024567	0.056458	-0.078278	0.005798	0.26352	0.022125	-0.13611	-0.003815	0.039978	-0.1181	-0.23895	-0.004578	0.13596	-0.19836	-0.14389	0.051575	-0.089417	-0.015411	-0.02655	-0.004425	0.44159	-0.21225	-0.003357	-0.001831
50.152	-0.028687	0.26154	-0.038452	0.009613	0.1181	-0.33157	0.022888	-0.00061	0.083618	0.1297	-0.13962	0.006409	-0.15976	0.004883	-0.069275	0.001526	0.048981	-0.11551	-0.018005	-0.026245	0.018311	-0.1471	-0.19119	0.007324	-0.087585	-0.031128	-0.055237	-0.007019	0.34332	0.075836	-0.002747	-0.002899
50.153	-0.045929	0.21301	-0.009613	0.020447	0.001373	-0.2655	0.12283	0.014343	0.10834	0.1326	-0.089417	0.005646	-0.087891	0.002747	-0.01709	-0.008545	0.016632	-0.084991	0.12329	-0.037994	-0.14282	-0.12222	-0.26154	0.009003	-0.010834	-0.011597	-0.036621	0.028534	0.30228	0.66528	-0.000458	0.003052
50.154	-0.059814	0.16174	-0.024414	0.006866	-0.082092	-0.17502	0.15045	0.013885	0.091095	0.12909	-0.059052	0.00061	-0.17914	-0.02594	-0.050812	-0.000763	0.011749	-0.06012	0.1326	-0.090942	0.042419	-0.20126	-0.32471	-0.025177	0.13199	-0.024261	0.003052	0.031891	0.17838	0.95215	0.00061	0.00061
50.155	-0.037537	0.18265	0.071564	-0.003052	-0.16419	-0.18951	0.079651	0.005035	-0.002899	0.086365	-0.048981	0.008392	0.083313	0.036163	-0.029144	0.002747	0.039063	-0.035706	0.068665	-0.045319	0.11002	-0.32928	-0.23483	0.013428	0.24719	-0.021667	-0.20218	0.012054	0.089264	0.66208	-0.000916	0.003052
50.156	-0.000763	0.15732	0.08316	0.001526	-0.16846	-0.16724	0.009003	0.002289	-0.013733	0.015259	-0.027161	0.009766	0.37262	0.11597	0.016022	0.001068	0.055084	0.004425	0.059662	-0.011597	0.0177	-0.3746	-0.1152	-0.026245	0.24887	-0.033569	-0.11658	-0.016327	-0.001068	0.3891	-0.005188	0.001221
50.157	0.032349	0.17258	0.031738	0.002441	0.02182	-0.17746	-0.040131	0.000305	0.15549	-0.084839	-0.014191	0.009155	0.11246	0.065308	-0.050354	-0.014191	0.043335	-0.05722	0.025787	0.044708	-0.060883	-0.43854	-0.073547	0.01297	0.19913	-0.041504	0.51712	-0.014954	-0.12833	-0.1033	0.000305	0.002136
